<?xml version="1.0" encoding="utf-8"?>
<!-- Generator: Adobe Illustrator 18.1.1, SVG Export Plug-In . SVG Version: 6.00 Build 0)  -->
<svg version="1.1" id="Layer_1" xmlns="http://www.w3.org/2000/svg" xmlns:xlink="http://www.w3.org/1999/xlink" x="0px" y="0px"
	 viewBox="0 0 500 63" enable-background="new 0 0 500 63" xml:space="preserve">
<g id="Oracle_logo_band_2_">
	<g id="Oracle_Logo_2_">
		<path fill="#000" d="M207.5,40.7h31.9l-16.7-27.1l-30.9,49h-14l37.5-58.8c1.6-2.4,4.4-3.8,7.4-3.8c2.9,0,5.6,1.4,7.3,3.7
			l37.7,58.9h-14.1l-6.6-11h-32.3L207.5,40.7 M353.4,51.6V0.5h-11.9v56c0,1.5,0.6,3,1.7,4.2c1.2,1.1,2.8,1.8,4.3,1.8h54.4l7.1-11
			L353.4,51.6 M156.2,42.5c11.7,0,21-9.4,21-21s-9.3-21-21-21H104v62h12v-51h39.4c5.5,0,10,4.5,10,10s-4.6,10-10,10h-33.6l35.6,31
			h17.3l-23.9-20.1L156.2,42.5 M30.7,62.6c-17.1,0-31-13.9-31-31s13.9-31,31-31h36c17.1,0,31,13.9,31,31s-13.9,31-31,31H30.7
			 M65.9,51.6c11.1,0,20.1-9,20.1-20.1c0-11-9-20.1-20.1-20.1H31.5c-11,0-20.1,9-20.1,20.1c0,11.1,9,20.1,20.1,20.1H65.9
			 M292.3,62.6c-17.1,0-31-13.9-31-31s13.9-31,31-31h42.8l-7,10.9h-35c-11,0-20.1,9-20.1,20.1c0,11.1,9,20.1,20.1,20.1h43l-7,11
			L292.3,62.6 M438.1,51.6c-9.2,0-16.9-6.2-19.3-14.6h50.9l7-11h-57.9c2.3-8.4,10.1-14.7,19.3-14.7h35l7-10.9h-42.8
			c-17.1,0-31,13.9-31,31s13.9,31,31,31h36.7l7-11C481.1,51.6,438.1,51.6,438.1,51.6z"/>
		<path fill="#000" d="M486.6,7.3c0-3,2.5-5.6,5.4-5.6c3.1,0,5.6,2.5,5.6,5.6c0,2.9-2.5,5.5-5.6,5.5
			C489,12.8,486.6,10.3,486.6,7.3 M492.1,14.3c3.9,0,6.9-3.2,6.9-6.9c0-3.9-3.1-6.9-6.9-6.9c-3.8,0-6.9,3.1-6.9,6.9
			C485.1,11.1,488.2,14.3,492.1,14.3 M491.4,3.2c1.1,0,1.5,0,2.1,0.2c1.4,0.5,1.5,1.7,1.5,2.2c0,0.1,0,0.4-0.1,0.6
			c-0.1,0.3-0.2,0.8-1,1.3c-0.2,0.1-0.2,0.1-0.4,0.2l1.9,3.2h-1.8l-1.6-3h-1v3h-1.5V3.2H491.4 M492,6.7c0.5,0,1,0,1.3-0.5
			c0.1-0.2,0.2-0.5,0.2-0.6c0-0.5-0.2-0.8-0.5-1c-0.4-0.1-0.8-0.1-1.5-0.1h-0.4v2.2L492,6.7L492,6.7z"/>
	</g>
</g>
</svg>
