<?xml version="1.0" encoding="utf-8"?>
<!-- Generator: Adobe Illustrator 19.0.0, SVG Export Plug-In . SVG Version: 6.00 Build 0)  -->
<svg version="1.1" id="Layer_1" xmlns="http://www.w3.org/2000/svg" xmlns:xlink="http://www.w3.org/1999/xlink" x="0px" y="0px"
	 viewBox="0 0 60 60" style="enable-background:new 0 0 60 60;" xml:space="preserve">
<style type="text/css">
	.st0{fill:#37392E;}
</style>
<g id="XMLID_2_">
	<rect id="XMLID_18_" x="18.9" y="22.1" class="st0" width="3.2" height="3.2"/>
	<rect id="XMLID_17_" x="28.4" y="22.1" class="st0" width="3.2" height="3.2"/>
	<rect id="XMLID_16_" x="37.9" y="22.1" class="st0" width="3.2" height="3.2"/>
	<rect id="XMLID_15_" x="47.4" y="22.1" class="st0" width="3.2" height="3.2"/>
	<rect id="XMLID_14_" x="18.9" y="34.7" class="st0" width="3.2" height="3.2"/>
	<rect id="XMLID_13_" x="28.4" y="34.7" class="st0" width="3.2" height="3.2"/>
	<rect id="XMLID_12_" x="9.5" y="34.7" class="st0" width="3.2" height="3.2"/>
	<rect id="XMLID_11_" x="18.9" y="47.4" class="st0" width="3.2" height="3.2"/>
	<rect id="XMLID_10_" x="28.4" y="47.4" class="st0" width="3.2" height="3.2"/>
	<rect id="XMLID_9_" x="37.9" y="47.4" class="st0" width="3.2" height="3.2"/>
	<rect id="XMLID_8_" x="9.5" y="47.4" class="st0" width="3.2" height="3.2"/>
	<rect id="XMLID_7_" x="47.4" y="34.7" class="st0" width="3.2" height="3.2"/>
	<circle id="XMLID_6_" class="st0" cx="39.5" cy="36.3" r="4.7"/>
	<path id="XMLID_3_" class="st0" d="M56.8,0H3.2C1.4,0,0,1.4,0,3.2v53.7C0,58.6,1.4,60,3.2,60h53.7c1.7,0,3.2-1.4,3.2-3.2V3.2
		C60,1.4,58.6,0,56.8,0z M56.8,53.7c0,1.7-1.4,3.2-3.2,3.2H6.3c-1.7,0-3.2-1.4-3.2-3.2V18.9c0-1.7,1.4-3.2,3.2-3.2h47.4
		c1.7,0,3.2,1.4,3.2,3.2V53.7z"/>
</g>
</svg>
