<?xml version="1.0" encoding="utf-8"?>
<!-- Generator: Adobe Illustrator 19.0.0, SVG Export Plug-In . SVG Version: 6.00 Build 0)  -->
<svg version="1.1" id="Layer_1" xmlns="http://www.w3.org/2000/svg" xmlns:xlink="http://www.w3.org/1999/xlink" x="0px" y="0px"
	 viewBox="0 0 28 50" style="enable-background:new 0 0 28 50;" xml:space="preserve">
<style type="text/css">
	.st0{fill:#3F89C6;}
</style>
<path id="location_x5F_icon_5_" class="st0" d="M18.6,0.9c-0.5-0.2-1.2-0.5-1.7-0.5c-0.8-0.2-1.5-0.2-2.3-0.2H14h-0.5
	c-0.7,0-1.5,0.2-2.2,0.2C10.5,0.6,10,0.6,9.5,0.9C5.9,2.1,3.4,4.4,1.9,7.6c-1,2-1.7,4.7-1.7,8c0,1.5,0.5,2.7,0.7,4
	c0.5,1.2,1,2.2,1.5,3.2c2.2,4,5.3,7.5,7.2,11.9c1,2.2,1.7,4.7,2.2,7.2c0.7,2.5,1.2,5.2,1.5,8.2H14h0.5c0.2-3,0.7-5.7,1.5-8.2
	c0.7-2.5,1.5-5,2.2-7.2c1.7-4.5,4.8-8,7.2-11.9c0.5-1,1-2,1.5-3.2c0.5-1.2,0.7-2.5,0.7-4c0.5-3.5-0.2-6-1.5-8
	C24.7,4.7,21.9,2.2,18.6,0.9z M14,20c-3.1,0-5.3-2.5-5.3-5.5S11,9.2,14,9.2s5.3,2.5,5.3,5.5S17.1,20,14,20z"/>
</svg>
